<svg class="cheese" xmlns="http://www.w3.org/2000/svg" viewBox="0 0 115 115">
<style>
.svg21 {
  fill: #e12a27;
}
.svg22 {
  fill: #facd30;
}
</style>
  <path class="svg21" d="M119.39,138.88c-4.94,3.18-7.41,4.77-9.14,5.27,0,0-4.81,1.4-5.88,2.14A6.86,6.86,0,0,1,103,147a4.24,4.24,0,0,1-.48.14,13.85,13.85,0,0,1-2.65.4c-3.51.12-9.92,1.8-19.26.71a43.33,43.33,0,0,1-12.14-2.92,50.63,50.63,0,0,1-7.11-3.77c-4.91-2.9-9.68-5.72-14.82-10.62-3.33-3.18-5-4.76-6.55-7.41-1.9-3.25-2.24-5.54-5.82-12.92-1.11-2.28-1-1.89-1.34-2.69-3.57-8.2-1.73-17-1-20.4.51-2.3,2.52-10.42,2.82-12.75A41,41,0,0,0,35,70.49a5.61,5.61,0,0,1,.2-.78c.58-1.72,6.81-12,7.7-13.53.54-.9.4-.7.62-1.06,2.91-4.65,6.66-7,12.37-10.66,2-1.25,3.62-2.13,4.6-2.77a6.81,6.81,0,0,1,2-.89c1.54-.41,8.57-3.52,15.27-5a56.06,56.06,0,0,1,13.76-1.06c4.88,0,7.69.07,11.37,1,3.94,1,6.9,2.75,12.82,6.23,5.48,3.22,8.22,4.84,11.69,7.85a59.28,59.28,0,0,1,9.24,10.52,34.39,34.39,0,0,1,1.79,3.06c2.23,4.36,2.14,6.69,3.44,11.24.82,2.87,1,2.17,1.76,4.86a31.86,31.86,0,0,1,1.19,11.83,17.46,17.46,0,0,0-.25,2.57,17.16,17.16,0,0,0,.07,2.07c.4,4.45-2.76,15.6-2.76,15.6-2.42,8.55-4,11-5.48,12.77-.26.31-.67.74-1.48,1.6a78.22,78.22,0,0,1-10.1,9.26C123.55,136.2,122.17,137.09,119.39,138.88Z" transform="translate(-30.7 -34.73)"></path>
  <path class="svg22" d="M88.75,146.78c-3.58-.23-5.18-.6-10.53-1.34-6.94-1-6.28-.61-7.29-1-4.51-1.58-4.57-4-10-7.25-4.25-2.53-4.54-1.2-8.12-3.6-2-1.37-6-4.06-8.16-8.9-1.21-2.77-1.32-5.15-3.7-6.89-1.54-1.12-2-.5-3-1.41-2.9-2.51.28-7.54-2.33-13.62-1.08-2.51-1.61-1.64-2.46-3.85-1.59-4.16.3-7.25,2.28-17.63.54-2.83.31-2.15.82-4.74,2.21-11.36,4.6-14.32,5.32-15.15.95-1.1.46-.22,4.22-3.49a78.79,78.79,0,0,0,9-8.89c2.65-3.13,2-2.93,3.09-3.83,3.38-2.77,5.9-1.61,10.38-4.53,2.48-1.62,2.11-2.23,3.93-2.91,2.82-1.05,4,.32,8.7.14a49.33,49.33,0,0,0,7-1.07c3.83-.73,4.3-1.05,5.76-.86,2.22.3,2.24,1.19,5.89,2.6a27.89,27.89,0,0,0,6.25,1.63c2.81.37,3.1-.08,4.89.32.67.15,2.35.6,6.3,3.82,4.19,3.42,4.31,4.56,7.49,6.7,2.9,2,3.27,1.31,5.33,2.77,4,2.81,5.45,7.2,7,12,2.55,8,.37,7.57,2.73,13.42,1.83,4.52,4.18,7.37,4.35,12.79a23.7,23.7,0,0,1-.18,3.46c-.51,4.75-1.8,6.61-3.15,11-2.35,7.65-.5,8.73-2.94,11.83-1.6,2-3,2.29-5,5.33-1.61,2.38-1.57,3.39-2.59,5.11h0a12.77,12.77,0,0,1-1.45,1.85c-1,1-8,4.63-9.18,5.26-5.76,3.08-7.85,7.47-11.3,8-1.73.25-3.94.45-3.94.45-1.23.11-1.67.09-2.14.17-3,.53-3.8,1.66-6.86,2.29A23.49,23.49,0,0,1,88.75,146.78Z" transform="translate(-30.7 -34.73)"></path>
</svg>