  <svg class="YellowPepper" xmlns="http://www.w3.org/2000/svg" viewBox="0 0 155 155">
  <style>

.svg8 {
  fill: #ffedb4;
}
.svg9 {
  fill: #ecc51b;
}
.svg10 {
  fill: #fcdb76;
}
.svg11 {
  fill: #fff4d2;
}
</style>
    <path class="svg8" d="M168.38,55.28a35.8,35.8,0,0,0-18.23-2.83,26.63,26.63,0,0,0-2.55-12.86c-5.85-11.94-19.5-15-24-16-13-2.92-31.11-.46-42.14,12.72a38.33,38.33,0,0,0-8.18,18.22c-4,.34-13,1.68-20.45,8.55-14.07,13-9.77,33.83-9,37.35.4,1.92,5.75,26.81,24.4,31.5a26.88,26.88,0,0,0,12.69,0,35.94,35.94,0,0,0,4.93,15c7.77,12.81,23.7,19.8,38.79,18,1.47-.17,18.71-2.48,28.9-17.64a39.77,39.77,0,0,0,5.87-14,39.82,39.82,0,0,0,12.88-5.54c15.42-10.23,17.95-27.89,18.15-29.5C192.54,81.32,184.05,62.4,168.38,55.28Zm7.15,53.88c-3.18,6.89-11.18,12.59-19.61,12a18.6,18.6,0,0,1-8.36-2.71,19.12,19.12,0,0,1,1.58,8.7c-.75,11.67-13.65,21.24-25.66,23.25-14.4,2.42-30-5.61-35.58-18.56a29.19,29.19,0,0,1-2-14.75c-.35,2-1.09,3.95-2.71,4.82-5.64,3-21.69-7.4-25.15-21.7S63.3,68.5,75.37,65.76a17.89,17.89,0,0,1,9.71.7,16.84,16.84,0,0,1-1.59-5.24c-1-8.09,4.47-15.64,10-19.49,5.08-3.53,10-3.81,16.93-4.2,8.4-.47,18.83-1.06,26.07,5.82,4.55,4.32,7.9,11.81,6,15.9a6.71,6.71,0,0,1-1.51,2c5.93-5.27,10.62-5.41,12.5-5.3,13.38.83,20.3,23.34,21.1,25.92a53.31,53.31,0,0,1,2.11,11.27C177.26,100.3,177.63,104.6,175.53,109.16Z" transform="translate(-37 -16.43)"></path>
    <path class="svg9" d="M167.24,50.62a34.9,34.9,0,0,0-14.55-2.77A32.74,32.74,0,0,0,148,33.09c-7.67-12.34-21.69-14.87-27.13-15.85-3-.54-28.7-4.76-43.63,13.39A40.69,40.69,0,0,0,68.77,49.8c-4.15.36-13.46,1.77-21.18,9C33,72.47,37.47,94.41,38.22,98.12c.46,2.25,5.56,25.56,25.27,33.15a35.34,35.34,0,0,0,13.74,2.28A35.81,35.81,0,0,0,81.73,147c8.41,14.41,26.13,20,40.17,19,4.84-.34,19.44,2.18,32.26-17.27a37.07,37.07,0,0,0,5.47-14,37.35,37.35,0,0,0,15.15-6.17c14.77-10.38,16.64-28.45,16.94-32.52C193,78.06,183.8,57.78,167.24,50.62Zm7.4,56.72c-3.24,7.13-11.54,13.45-20.31,12.66a18.09,18.09,0,0,1-8.32-3,21.54,21.54,0,0,1,1.3,9.32c-1.1,12.1-13.36,22.94-26.57,24.47-15.35,1.79-31.06-9.25-33.54-22.31a22.15,22.15,0,0,1,.68-10.55A19.3,19.3,0,0,1,79,120.78c-11.69.66-23.14-10.84-26-22.84C48.92,81.16,61.23,62,73.6,60.45a14.66,14.66,0,0,1,6.34.69,16.8,16.8,0,0,1-.6-4.27c-.09-8.83,7-17,14.84-20.37,2.72-1.18,4.93-1.46,9.24-2,13.52-1.57,23.32-2.7,30.8,3.52a24.57,24.57,0,0,1,8.35,17.48,22.32,22.32,0,0,1-.41,5.1c3.57-3.53,6.67-4.26,8.35-4.44,10.27-1.11,19.75,12.53,23.11,22.44a47.76,47.76,0,0,1,2.19,11.86C176.43,98,176.82,102.54,174.64,107.33Z" transform="translate(-37 -16.43)"></path>
    <path class="svg10" d="M165.08,49.85a34.19,34.19,0,0,0-14-2.63,30.75,30.75,0,0,0-4.54-14c-7.41-11.72-20.94-14.12-26.2-15.06-2.9-.51-27.72-4.52-42.14,12.72A38.33,38.33,0,0,0,70,49.08c-4,.34-13,1.68-20.45,8.55-14.07,13-9.77,33.83-9,37.35.44,2.14,5.37,24.29,24.4,31.5a34.64,34.64,0,0,0,13.27,2.17,33.63,33.63,0,0,0,4.34,12.75c8.12,13.69,25.23,19,38.79,18,4-.27,21.53-2,31.15-16.41a34.88,34.88,0,0,0,5.28-13.26,36.42,36.42,0,0,0,14.63-5.87c14.26-9.86,16.07-27,16.36-30.9C190,75.92,181.07,56.66,165.08,49.85Zm7.15,53.88c-3.18,6.89-11.18,12.59-19.61,12a18.6,18.6,0,0,1-8.36-2.71,19.12,19.12,0,0,1,1.58,8.7c-.75,11.6-13.18,21.82-25.66,23.25-15.13,1.73-31.67-9.32-32.39-21.19A16.58,16.58,0,0,1,90.63,114a23.14,23.14,0,0,1-10.75,2.51c-11.59-.25-22.62-10-25.15-21.7-3.43-15.87,9.36-33,20.39-33.32a12.83,12.83,0,0,1,6.8,1.9,18,18,0,0,1-1.74-7.59c0-9,7.31-16.35,14.33-19.35,2.62-1.12,4.76-1.38,8.92-1.86C116.5,33.09,126,32,133.19,37.93c7.53,6.16,8,16.17,8.06,16.6a22.24,22.24,0,0,1-1.42,8.57c3.56-3.89,6.87-4.8,8.54-5.08,9.79-1.61,19.44,9.39,22.86,18.46a39.5,39.5,0,0,1,2.11,11.27C174,94.88,174.33,99.18,172.23,103.73Z" transform="translate(-37 -16.43)"></path>
    <path class="svg11" d="M53.26,109.84c-.2.09-13.92-15.86-9.61-33.9.48-2,3.33-14,14.68-20a29,29,0,0,1,15.75-3.2c.08-4,.86-12.75,7.21-20,8.51-9.76,21.23-10.2,27.5-10.41A49.77,49.77,0,0,1,128,25.49c-7-1.78-19-3.56-31.77,1.07-5.09,1.85-10.74,4-14.78,9.73-6,8.6-3.94,18.82-3.38,21.23a27,27,0,0,0-17.89,1.6C48.47,64.75,45.93,77.6,45.52,79.68,42.32,95.83,53.44,109.76,53.26,109.84Z" transform="translate(-37 -16.43)"></path>
    <path class="svg8" d="M85.5,131.73a38.3,38.3,0,0,0,14.62,16.42,37.33,37.33,0,0,0,15.22,5.21c10.59,1.17,26.78-1.78,34.24-14.42a29.34,29.34,0,0,0,3.8-16c2.93.3,12.49.93,19.82-5.41,6.59-5.69,8.18-14.23,7.81-14.42s-2.37,7.27-8.61,12.21c-6.69,5.3-15.38,5.47-21.62,4.81a28,28,0,0,1-4.4,18.62c-6.24,9.2-16.41,11-20.82,11.81a38.87,38.87,0,0,1-23-3.2A39.45,39.45,0,0,1,85.5,131.73Z" transform="translate(-37 -16.43)"></path>
  </svg>